<?xml version="1.0" encoding="utf-8"?>
<!-- Generator: Adobe Illustrator 27.5.0, SVG Export Plug-In . SVG Version: 6.00 Build 0)  -->
<svg version="1.1" id="레이어_2" xmlns="http://www.w3.org/2000/svg" xmlns:xlink="http://www.w3.org/1999/xlink" x="0px"
	 y="0px" viewBox="0 0 317.4 56" style="enable-background:new 0 0 317.4 56;" xml:space="preserve">
<style type="text/css">
	.st0{fill:#217AFF;}
	.st1{fill:#AEDCFF;}
</style>
<g>
	<g>
		<path class="st0" d="M62.6,15L57.7,10c-2.9-2.9-7.6-2.9-10.5,0l-4.5,4.5c-0.2,0.2-0.2,0.5,0,0.7l1.3,1.3c0.2,0.2,0.5,0.2,0.7,0
			l4.5-4.5c1.8-1.8,4.6-1.8,6.4,0l4.9,4.9c1.8,1.8,1.8,4.6,0,6.4l-8.2,8.2L30.7,10c-2.9-2.9-7.6-2.9-10.5,0L15.3,15
			c-2.9,2.9-2.9,7.6,0,10.5l23.7,23.7l23.7-23.7C65.5,22.6,65.5,17.9,62.6,15z"/>
		<path class="st1" d="M38.9,45L17.3,23.4c-1.8-1.8-1.8-4.6,0-6.4l4.9-4.9c1.8-1.8,4.6-1.8,6.4,0l21.6,21.6L38.9,45z"/>
	</g>
	<g>
		<g>
			<g>
				<path d="M293.4,26.4h3.8v-3.7h3.3v3.7h3.8v3.4h-3.8v3.8h-3.3v-3.8h-3.8V26.4z"/>
			</g>
		</g>
		<g>
			<path d="M85,39.1c-1.9,0-3.6-0.4-4.9-1.1c-1.3-0.7-2.5-1.7-3.5-2.8l3.7-2.9c0.5,0.9,1.2,1.7,2,2.2c0.8,0.5,1.7,0.8,2.7,0.8
				c0.5,0,1-0.1,1.4-0.2c0.4-0.2,0.7-0.4,1-0.6c0.3-0.3,0.5-0.6,0.6-0.9c0.1-0.4,0.2-0.7,0.2-1.1c0-0.5-0.1-0.8-0.4-1.1
				c-0.3-0.3-0.6-0.6-1-0.8S86,30,85.5,29.9c-0.5-0.2-1.1-0.4-1.7-0.5c-0.7-0.2-1.5-0.5-2.2-0.8c-0.7-0.3-1.4-0.6-2-1.1
				c-0.6-0.5-1.1-1-1.4-1.7c-0.4-0.7-0.5-1.5-0.5-2.5c0-0.9,0.2-1.7,0.5-2.4c0.4-0.7,0.8-1.4,1.5-2c0.6-0.6,1.4-1,2.3-1.3
				c0.9-0.3,1.8-0.5,2.9-0.5c0.9,0,1.6,0.1,2.3,0.2c0.7,0.2,1.3,0.4,1.9,0.6c0.6,0.3,1.1,0.6,1.6,1c0.5,0.4,0.9,0.8,1.4,1.3
				l-3.3,2.5c-0.9-1.4-2.2-2.1-3.9-2.1c-1,0-1.7,0.2-2.2,0.7c-0.5,0.5-0.8,1-0.8,1.7c0,0.4,0.1,0.8,0.4,1.1c0.2,0.3,0.6,0.6,1,0.8
				c0.4,0.2,0.9,0.4,1.4,0.6s1.1,0.4,1.7,0.6c0.7,0.2,1.5,0.5,2.2,0.8c0.7,0.3,1.4,0.7,2,1.2s1.1,1.1,1.5,1.8
				c0.4,0.7,0.6,1.6,0.6,2.6c0,0.8-0.2,1.7-0.5,2.5c-0.3,0.8-0.8,1.5-1.4,2.1c-0.6,0.6-1.4,1.1-2.3,1.5C87.3,38.9,86.2,39.1,85,39.1
				z"/>
			<path d="M102,39.2c-1,0-2.1-0.2-3.1-0.6c-1-0.4-1.9-1-2.7-1.8c-0.8-0.8-1.5-1.7-1.9-2.8c-0.5-1.1-0.7-2.4-0.7-3.8
				c0-1.4,0.2-2.7,0.7-3.8c0.5-1.1,1.1-2,1.9-2.8c0.8-0.8,1.7-1.3,2.7-1.8c1-0.4,2.1-0.6,3.2-0.6c1.1,0,2.2,0.2,3.2,0.6
				c1,0.4,1.8,1,2.4,1.8v-2.1h4v17.2h-4v-2.2c-0.6,0.8-1.4,1.4-2.4,1.9C104.2,39,103.2,39.2,102,39.2z M102.7,35.5
				c0.7,0,1.4-0.1,2-0.4c0.6-0.3,1.2-0.7,1.6-1.1c0.5-0.5,0.8-1.1,1.1-1.7c0.3-0.6,0.4-1.3,0.4-2.1c0-0.7-0.1-1.4-0.4-2.1
				c-0.3-0.6-0.6-1.2-1.1-1.7c-0.5-0.5-1-0.9-1.6-1.1c-0.6-0.3-1.3-0.4-2-0.4c-0.7,0-1.4,0.1-2.1,0.4S99.5,26,99,26.4
				c-0.5,0.5-0.8,1-1.1,1.7s-0.4,1.3-0.4,2.1c0,0.7,0.1,1.4,0.4,2.1c0.3,0.7,0.6,1.2,1.1,1.7c0.5,0.5,1,0.9,1.6,1.1
				C101.3,35.4,101.9,35.5,102.7,35.5z"/>
			<path d="M114,21.6h3.9v2c0.5-0.7,1.2-1.3,2.1-1.7c0.8-0.4,1.8-0.6,2.8-0.6c1.4,0,2.5,0.3,3.4,0.8c0.9,0.5,1.7,1.3,2.2,2.2
				c0.6-0.9,1.4-1.6,2.3-2.2c1-0.5,2.1-0.8,3.3-0.8c2.3,0,4.1,0.6,5.2,1.9c1.2,1.3,1.8,3,1.8,5.3v10.4h-4.1v-10c0-1.3-0.3-2.3-0.9-3
				c-0.6-0.7-1.6-1.1-2.8-1.1c-1.1,0-2,0.4-2.7,1.1c-0.7,0.7-1.1,1.9-1.1,3.4v9.6h-4V28.7c0-1.2-0.3-2.2-0.9-2.9
				c-0.6-0.7-1.5-1.1-2.7-1.1c-1.1,0-2,0.4-2.8,1.1c-0.7,0.8-1.1,1.9-1.1,3.4v9.5h-4V21.6z"/>
			<path d="M149.9,39.2c-1.9,0-3.5-0.4-4.7-1.1c-1.3-0.7-2.2-1.8-2.9-3.1l3.7-1.8c0.4,0.8,1,1.4,1.7,1.9c0.7,0.4,1.5,0.6,2.5,0.6
				c1,0,1.7-0.2,2.2-0.6c0.5-0.4,0.7-0.9,0.7-1.5c0-0.3-0.1-0.6-0.3-0.8c-0.2-0.2-0.5-0.4-0.9-0.5c-0.4-0.1-0.8-0.3-1.3-0.4
				c-0.5-0.1-1-0.2-1.5-0.3c-0.7-0.1-1.5-0.3-2.2-0.5c-0.7-0.2-1.4-0.5-1.9-0.9c-0.6-0.4-1-0.9-1.4-1.5c-0.4-0.6-0.5-1.3-0.5-2.3
				c0-0.7,0.2-1.3,0.5-2c0.3-0.6,0.8-1.2,1.4-1.7c0.6-0.5,1.3-0.9,2.1-1.2c0.8-0.3,1.8-0.4,2.8-0.4c1.7,0,3.2,0.3,4.3,1
				c1.1,0.6,2.1,1.5,2.7,2.6l-3.4,1.7c-0.4-0.6-0.8-1.1-1.5-1.4c-0.6-0.4-1.4-0.5-2.2-0.5c-0.9,0-1.6,0.2-2.1,0.6
				c-0.5,0.4-0.7,0.8-0.7,1.3c0,0.6,0.3,1,1,1.2c0.7,0.2,1.6,0.5,2.9,0.8c0.7,0.2,1.4,0.3,2.1,0.6c0.7,0.2,1.4,0.5,2,0.9
				c0.6,0.4,1.1,0.9,1.4,1.5c0.4,0.6,0.5,1.3,0.5,2.3c0,0.6-0.1,1.2-0.4,1.9c-0.3,0.7-0.7,1.3-1.3,1.8c-0.6,0.6-1.3,1-2.2,1.4
				C152.2,39,151.1,39.2,149.9,39.2z"/>
			<path d="M174,38.8h-3.9v-2c-0.5,0.7-1.2,1.3-2.1,1.7c-0.8,0.4-1.8,0.6-2.9,0.6c-1,0-1.9-0.2-2.8-0.5c-0.8-0.3-1.5-0.8-2.1-1.5
				c-0.6-0.6-1-1.4-1.3-2.3c-0.3-0.9-0.5-1.9-0.5-3.1V21.6h4v9.8c0,1.3,0.3,2.4,0.9,3.2c0.6,0.8,1.5,1.2,2.8,1.2
				c1.1,0,2-0.4,2.7-1.2c0.7-0.8,1.1-2,1.1-3.5v-9.5h4V38.8z"/>
			<path d="M176.5,21.6h3.9v2.1c0.6-0.7,1.3-1.3,2.2-1.8c0.9-0.5,1.9-0.7,3-0.7c2.1,0,3.8,0.6,5,1.9c1.2,1.3,1.8,3.1,1.8,5.4v10.2
				h-4V29c0-1.3-0.3-2.4-1-3.2c-0.6-0.8-1.6-1.2-2.9-1.2c-1.1,0-2.1,0.4-2.9,1.2c-0.8,0.8-1.2,2-1.2,3.5v9.5h-4V21.6z"/>
			<path d="M208.2,36.5c-0.6,0.8-1.4,1.5-2.4,1.9c-1,0.5-2.1,0.7-3.2,0.7c-1,0-2.1-0.2-3.1-0.6c-1-0.4-1.9-1-2.7-1.8
				c-0.8-0.8-1.5-1.7-1.9-2.8c-0.5-1.1-0.7-2.4-0.7-3.8c0-1.4,0.2-2.7,0.7-3.8c0.5-1.1,1.1-2,1.9-2.8c0.8-0.8,1.7-1.3,2.7-1.8
				c1-0.4,2.1-0.6,3.2-0.6c1.1,0,2.2,0.2,3.1,0.7c1,0.5,1.8,1.1,2.4,1.9v-2.2h4v16.8c0,1.2-0.2,2.4-0.6,3.4c-0.4,1.1-0.9,2-1.7,2.8
				c-0.7,0.8-1.7,1.4-2.8,1.9c-1.1,0.5-2.4,0.7-3.8,0.7c-1.1,0-2.1-0.1-3-0.4c-0.9-0.2-1.7-0.6-2.5-1c-0.7-0.4-1.4-1-1.9-1.6
				s-1-1.3-1.4-2l3.5-2.1c0.3,0.6,0.6,1.1,1,1.5c0.3,0.4,0.7,0.8,1.1,1.1c0.4,0.3,0.9,0.5,1.4,0.6c0.5,0.1,1.1,0.2,1.8,0.2
				c0.7,0,1.4-0.1,2-0.4c0.6-0.3,1.1-0.6,1.5-1.1c0.4-0.5,0.7-1,1-1.6s0.3-1.2,0.3-1.9V36.5z M203.3,35.5c0.7,0,1.4-0.1,2-0.4
				c0.6-0.3,1.2-0.7,1.6-1.1c0.5-0.5,0.8-1.1,1.1-1.7c0.3-0.6,0.4-1.3,0.4-2.1c0-0.7-0.1-1.4-0.4-2.1c-0.3-0.6-0.6-1.2-1.1-1.7
				c-0.5-0.5-1-0.9-1.6-1.1s-1.3-0.4-2-0.4c-0.7,0-1.4,0.1-2.1,0.4c-0.6,0.3-1.2,0.6-1.6,1.1c-0.5,0.5-0.8,1-1.1,1.7
				c-0.3,0.6-0.4,1.3-0.4,2.1c0,0.7,0.1,1.4,0.4,2.1c0.3,0.7,0.6,1.2,1.1,1.7c0.5,0.5,1,0.9,1.6,1.1
				C201.8,35.4,202.5,35.5,203.3,35.5z"/>
			<path d="M231.7,39.1c-1.6,0-3.2-0.3-4.5-0.9c-1.4-0.6-2.5-1.4-3.5-2.4c-1-1-1.7-2.2-2.2-3.5c-0.5-1.3-0.8-2.8-0.8-4.3
				c0-1.6,0.3-3.1,0.9-4.4c0.6-1.3,1.3-2.5,2.3-3.5s2.2-1.7,3.5-2.3c1.3-0.5,2.8-0.8,4.3-0.8c1,0,2,0.1,2.9,0.4
				c0.9,0.3,1.8,0.6,2.6,1.1c0.8,0.5,1.6,1,2.2,1.7c0.7,0.7,1.2,1.4,1.7,2.2l-3.5,2.2c-0.6-1.1-1.4-2-2.4-2.6c-1-0.6-2.1-1-3.5-1
				c-1,0-2,0.2-2.8,0.5c-0.9,0.4-1.6,0.9-2.2,1.5c-0.6,0.6-1.1,1.4-1.5,2.3c-0.4,0.9-0.5,1.8-0.5,2.8c0,1,0.2,1.9,0.5,2.8
				c0.4,0.9,0.8,1.6,1.5,2.2c0.6,0.6,1.4,1.1,2.2,1.5c0.9,0.4,1.8,0.5,2.8,0.5c1.5,0,2.8-0.4,3.8-1.1s1.8-1.7,2.4-2.9l3.7,1.9
				c-0.5,0.9-1,1.8-1.7,2.5c-0.7,0.7-1.4,1.4-2.3,1.9c-0.8,0.5-1.7,1-2.7,1.3C233.7,39,232.7,39.1,231.7,39.1z"/>
			<path d="M250.9,39.2c-1,0-2.1-0.2-3.1-0.6c-1-0.4-1.9-1-2.7-1.8c-0.8-0.8-1.5-1.7-1.9-2.8s-0.7-2.4-0.7-3.8
				c0-1.4,0.2-2.7,0.7-3.8c0.5-1.1,1.1-2,1.9-2.8c0.8-0.8,1.7-1.3,2.7-1.8c1-0.4,2.1-0.6,3.2-0.6c1.1,0,2.2,0.2,3.2,0.6
				c1,0.4,1.8,1,2.4,1.8v-2.1h4v17.2h-4v-2.2c-0.6,0.8-1.4,1.4-2.4,1.9C253.1,39,252.1,39.2,250.9,39.2z M251.6,35.5
				c0.7,0,1.4-0.1,2-0.4c0.6-0.3,1.2-0.7,1.6-1.1c0.5-0.5,0.8-1.1,1.1-1.7c0.3-0.6,0.4-1.3,0.4-2.1c0-0.7-0.1-1.4-0.4-2.1
				s-0.6-1.2-1.1-1.7c-0.5-0.5-1-0.9-1.6-1.1c-0.6-0.3-1.3-0.4-2-0.4c-0.7,0-1.4,0.1-2.1,0.4c-0.6,0.3-1.2,0.6-1.6,1.1
				c-0.5,0.5-0.8,1-1.1,1.7c-0.3,0.6-0.4,1.3-0.4,2.1c0,0.7,0.1,1.4,0.4,2.1c0.3,0.7,0.6,1.2,1.1,1.7c0.5,0.5,1,0.9,1.6,1.1
				C250.1,35.4,250.8,35.5,251.6,35.5z"/>
			<path d="M262.9,21.6h3.9v2.6c0.8-1.7,2.3-2.6,4.4-2.6c0.6,0,1.2,0.1,1.7,0.2c0.5,0.1,0.9,0.3,1.3,0.5l-1.5,3.8
				c-0.3-0.2-0.6-0.4-1-0.5c-0.4-0.1-0.8-0.2-1.4-0.2c-1.2,0-2,0.3-2.6,1c-0.6,0.7-0.9,1.7-0.9,3.2v9.2h-4V21.6z"/>
			<path d="M282.9,39.2c-1.4,0-2.6-0.2-3.7-0.7c-1.1-0.5-2.1-1.1-2.9-1.9c-0.8-0.8-1.4-1.8-1.9-2.8c-0.4-1.1-0.7-2.3-0.7-3.5
				c0-1.3,0.2-2.4,0.7-3.5c0.5-1.1,1.1-2.1,1.9-2.9c0.8-0.8,1.8-1.4,2.8-1.9c1.1-0.5,2.3-0.7,3.5-0.7c1.3,0,2.5,0.2,3.5,0.7
				c1.1,0.4,2,1.1,2.8,1.9c0.8,0.8,1.4,1.7,1.8,2.8c0.4,1.1,0.7,2.3,0.7,3.5v1.5h-14c0.3,1.2,0.9,2.2,1.8,2.9
				c0.9,0.7,2.1,1.1,3.5,1.1c1.1,0,2.1-0.3,2.9-0.8c0.8-0.5,1.4-1.3,1.9-2.2l3.3,1.9c-0.7,1.4-1.8,2.5-3.1,3.4
				C286.5,38.8,284.9,39.2,282.9,39.2z M282.8,24.8c-1.2,0-2.2,0.3-3.1,1c-0.9,0.6-1.5,1.5-1.8,2.6h9.8c-0.3-1.2-0.9-2-1.7-2.6
				C285.1,25.1,284,24.8,282.8,24.8z"/>
		</g>
	</g>
</g>
</svg>
