<?xml version="1.0" encoding="utf-8"?>
<!-- Generator: Adobe Illustrator 27.2.0, SVG Export Plug-In . SVG Version: 6.00 Build 0)  -->
<svg version="1.1" id="Layer_1" xmlns="http://www.w3.org/2000/svg" xmlns:xlink="http://www.w3.org/1999/xlink" x="0px" y="0px"
	 viewBox="0 0 60 60" style="enable-background:new 0 0 60 60;" xml:space="preserve">
<g id="Wheretobuy">
	<path id="Combined-Shape" d="M10.2,52.8c-0.9,0-1.7-0.7-1.7-1.6l0-0.1V29l0.2,0c-1-1-1.6-2.3-1.7-3.8L7,25v-2.5c0,0,0-0.1,0-0.1
		c0-0.1,0-0.2,0-0.2l0,0L9.7,9.6C9.7,9.2,10,9,10.4,9l0,0h38.2c0.4,0,0.7,0.2,0.7,0.6l0,0L52,22.1c0,0.1,0,0.2,0,0.3c0,0,0,0,0,0
		l0,0.1V25c0,1.6-0.6,3-1.7,4l0.2,0v22c0,0.9-0.7,1.7-1.6,1.7l-0.1,0H10.2z M40.5,27.3c-0.9,1.9-2.8,3.3-5,3.4l-0.2,0h-0.5
		c-2.3,0-4.4-1.4-5.3-3.4c-0.9,1.9-2.8,3.3-5,3.4l-0.2,0h-0.5c-2.3,0-4.4-1.4-5.3-3.4c-0.9,1.9-2.8,3.3-5,3.4l-0.2,0h-0.5
		c-1,0-1.9-0.3-2.8-0.7l0,21c0,0.1,0.1,0.2,0.2,0.2l0.1,0l12.2,0V40c0-1.1,0.9-2,2-2h10c1.1,0,2,0.9,2,2v11.3l12.2,0
		c0.1,0,0.2-0.1,0.2-0.2l0-0.1l0-21c-0.8,0.4-1.6,0.7-2.5,0.7l-0.2,0h-0.5C43.4,30.7,41.4,29.3,40.5,27.3z M34.5,39.5h-10
		c-0.2,0-0.4,0.2-0.5,0.4l0,0.1v11.3h11V40C35,39.8,34.8,39.6,34.5,39.5L34.5,39.5z M17.5,23h-9v2c0,2.3,1.8,4.1,4,4.2l0.2,0h0.5
		c2.3,0,4.1-1.8,4.2-4l0-0.2V23z M28.5,23h-9v2c0,2.3,1.8,4.1,4,4.2l0.2,0h0.5c2.3,0,4.1-1.8,4.2-4l0-0.2V23z M39.5,23h-9v2
		c0,2.3,1.8,4.1,4,4.2l0.2,0h0.5c2.3,0,4.1-1.8,4.2-4l0-0.2V23z M50.5,23h-9l0,2c0,2.3,1.8,4.1,4,4.2l0.2,0h0.5c2.3,0,4.1-1.8,4.2-4
		l0-0.2L50.5,23z M48,10.5H11l-2.3,11h41.6L48,10.5z"/>
</g>
</svg>
