<?xml version="1.0" encoding="utf-8"?>
<!-- Generator: Adobe Illustrator 27.2.0, SVG Export Plug-In . SVG Version: 6.00 Build 0)  -->
<svg version="1.1" id="Layer_1" xmlns="http://www.w3.org/2000/svg" xmlns:xlink="http://www.w3.org/1999/xlink" x="0px" y="0px"
	 viewBox="0 0 60 60" style="enable-background:new 0 0 60 60;" xml:space="preserve">
<style type="text/css">
	.st0{fill-rule:evenodd;clip-rule:evenodd;}
	.st1{fill:#12100B;}
	.st2{fill:none;stroke:#12100B;stroke-width:1.8;stroke-miterlimit:10;}
</style>
<g id="Nav">
	<g id="Navi_04_Contact">
		<path id="Combined-Shape_1_" class="st0" d="M29.2,9.3c1.4,0,2.6,1.1,2.7,2.5V12v14.7c0,1.4-1.1,2.6-2.5,2.7h-0.2H16.7l-4,4
			c-0.5,0.5-1.3,0.2-1.4-0.4v-0.1v-0.1v-3.4H5.9c-1.4,0-2.5-1-2.7-2.3v-0.2v-0.2V12c0-1.4,1.1-2.6,2.5-2.7h0.2H29.2z M29.2,11H5.9
			c-0.5,0-0.9,0.4-1,0.9L5,12v14.7c0,0.5,0.4,0.9,0.9,1H6h6.1c0.4,0,0.8,0.3,0.9,0.7v0.1v2.2l2.8-2.8c0.1-0.1,0.2-0.2,0.4-0.2h0.1
			h0.1h12.9c0.5,0,0.9-0.4,1-0.9v-0.1V12C30.2,11.5,29.7,11,29.2,11z"/>
	</g>
</g>
<g>
	<path d="M16.4,20.6c0-0.5,0.1-1,0.3-1.3s0.5-0.7,1-1.1c0.4-0.3,0.6-0.5,0.7-0.7s0.2-0.4,0.2-0.6c0-0.6-0.4-0.9-1.2-0.9
		c-0.7,0-1.4,0.2-2.1,0.7l-0.7-1.5c0.4-0.3,0.9-0.5,1.4-0.7c0.5-0.2,1.1-0.2,1.6-0.2c0.9,0,1.7,0.2,2.2,0.7c0.5,0.4,0.8,1.1,0.8,1.9
		c0,0.5-0.1,0.8-0.3,1.2c-0.2,0.3-0.6,0.7-1.1,1.1s-0.8,0.6-0.9,0.8c-0.2,0.2-0.2,0.5-0.2,0.7c0,0.1,0,0.3,0,0.6h-1.7
		C16.4,20.9,16.4,20.7,16.4,20.6z M16.4,24.1c-0.2-0.2-0.3-0.5-0.3-0.8s0.1-0.6,0.3-0.8s0.5-0.3,0.8-0.3c0.4,0,0.6,0.1,0.8,0.3
		c0.2,0.2,0.3,0.5,0.3,0.8s-0.1,0.6-0.3,0.8s-0.5,0.3-0.8,0.3S16.6,24.3,16.4,24.1z"/>
</g>
<g>
	<circle class="st1" cx="45.9" cy="32.3" r="1.4"/>
	<circle class="st1" cx="38.2" cy="32.3" r="1.4"/>
	<circle class="st1" cx="30.6" cy="32.3" r="1.4"/>
</g>
<path class="st2" d="M21.1,28.7c-0.3,1-0.5,2.2-0.6,3.3c-0.1,6.5,5,11.8,11.5,12h3.3c0.5,0,0.9,0.2,1.2,0.5l6.4,6.3
	c0.3,0.3,0.5,0.2,0.5-0.2v-5.9c0-0.4,0.3-0.7,0.7-0.7l0,0c6.5,0,11.7-5.2,11.8-11.7s-5.2-11.7-11.7-11.8H32c-0.3,0-0.6,0-0.9,0.1"/>
</svg>
