<?xml version="1.0" encoding="utf-8"?>
<!-- Generator: Adobe Illustrator 27.2.0, SVG Export Plug-In . SVG Version: 6.00 Build 0)  -->
<svg version="1.1" id="Layer_1" xmlns="http://www.w3.org/2000/svg" xmlns:xlink="http://www.w3.org/1999/xlink" x="0px" y="0px"
	 viewBox="0 0 60 60" style="enable-background:new 0 0 60 60;" xml:space="preserve">
<g id="Nav">
	<g id="Navi_02_Coverage">
		<path id="Combined-Shape" d="M48.2,7c1,0,1.8,0.8,1.8,1.8l0,0v42.5c0,1-0.8,1.8-1.8,1.8l0,0H11.8c-1,0-1.8-0.8-1.8-1.8l0,0V8.8
			c0-1,0.8-1.8,1.8-1.8l0,0H48.2z M48.2,8.5H11.8c-0.1,0-0.2,0.1-0.2,0.2l0,0v42.5c0,0.1,0.1,0.2,0.2,0.2l0,0h36.5
			c0.1,0,0.2-0.1,0.2-0.2l0,0V8.8C48.5,8.6,48.4,8.5,48.2,8.5L48.2,8.5z M22.8,40.8l0.4,0.4c0.2,0.2,0.2,0.5,0,0.7l-3.4,3.4
			c-0.2,0.2-0.4,0.2-0.6,0.1L19,45.3l-2.1-2.1c-0.2-0.2-0.2-0.5,0-0.7l0.3-0.3c0.2-0.2,0.5-0.2,0.7,0l1.4,1.4l2.7-2.7
			C22.2,40.6,22.6,40.6,22.8,40.8z M43,42.7c0.3,0,0.5,0.2,0.5,0.5v0.5c0,0.3-0.2,0.5-0.5,0.5H27c-0.3,0-0.5-0.2-0.5-0.5v-0.5
			c0-0.3,0.2-0.5,0.5-0.5H43z M22.8,28.5l0.4,0.4c0.2,0.2,0.2,0.5,0,0.7L19.7,33c-0.2,0.2-0.4,0.2-0.6,0.1L19,33l-2.1-2.1
			c-0.2-0.2-0.2-0.5,0-0.7l0.3-0.3c0.2-0.2,0.5-0.2,0.7,0l1.4,1.4l2.7-2.7C22.2,28.3,22.6,28.3,22.8,28.5z M43,30.4
			c0.3,0,0.5,0.2,0.5,0.5v0.5c0,0.3-0.2,0.5-0.5,0.5H27c-0.3,0-0.5-0.2-0.5-0.5v-0.5c0-0.3,0.2-0.5,0.5-0.5H43z M22.8,16.2l0.4,0.4
			c0.2,0.2,0.2,0.5,0,0.7l-3.4,3.4c-0.2,0.2-0.4,0.2-0.6,0.1L19,20.7l-2.1-2.1c-0.2-0.2-0.2-0.5,0-0.7l0.3-0.3
			c0.2-0.2,0.5-0.2,0.7,0l1.4,1.4l2.7-2.7C22.2,16,22.6,16,22.8,16.2z M43,18.1c0.3,0,0.5,0.2,0.5,0.5V19c0,0.3-0.2,0.5-0.5,0.5H27
			c-0.3,0-0.5-0.2-0.5-0.5v-0.5c0-0.3,0.2-0.5,0.5-0.5H43z"/>
	</g>
</g>
</svg>
