<?xml version="1.0" encoding="utf-8"?>
<!-- Generator: Adobe Illustrator 27.2.0, SVG Export Plug-In . SVG Version: 6.00 Build 0)  -->
<svg version="1.1" id="Layer_1" xmlns="http://www.w3.org/2000/svg" xmlns:xlink="http://www.w3.org/1999/xlink" x="0px" y="0px"
	 viewBox="0 0 60 60" style="enable-background:new 0 0 60 60;" xml:space="preserve">
<style type="text/css">
	.st0{fill-rule:evenodd;clip-rule:evenodd;}
</style>
<g id="DirectPurchase">
	<path id="Combined-Shape" class="st0" d="M23.1,44c2.3,0,4.1,1.8,4.1,4.1c0,2.3-1.8,4.1-4.1,4.1S19,50.4,19,48.1
		C19,45.8,20.8,44,23.1,44z M46.1,44c2.3,0,4.1,1.8,4.1,4.1c0,2.3-1.8,4.1-4.1,4.1c-2.3,0-4.1-1.8-4.1-4.1C42,45.8,43.8,44,46.1,44z
		 M23.1,45.8c-1.3,0-2.4,1.1-2.4,2.4c0,1.3,1.1,2.4,2.4,2.4c1.3,0,2.4-1.1,2.4-2.4C25.5,46.8,24.4,45.8,23.1,45.8z M46.1,45.8
		c-1.3,0-2.4,1.1-2.4,2.4c0,1.3,1.1,2.4,2.4,2.4c1.3,0,2.4-1.1,2.4-2.4C48.5,46.8,47.4,45.8,46.1,45.8z M3.9,13l7.8,0.1
		c0.4,0,0.7,0.2,0.8,0.6l0,0.1l5.7,26.3h33.1l4-18.9c0.1-0.4,0.5-0.7,0.9-0.7l0.1,0c0.4,0.1,0.7,0.5,0.7,0.9l0,0.1l-4.1,19.6
		c-0.1,0.4-0.4,0.6-0.7,0.7l-0.1,0H17.5c-0.4,0-0.7-0.2-0.8-0.6l0-0.1l-5.7-26.3l-7.1-0.1c-0.4,0-0.8-0.3-0.9-0.8l0-0.1
		c0-0.4,0.3-0.8,0.8-0.9L3.9,13z M37.4,12l0,8.1l6.5,0l-9.4,9.4L25,20.1l6.5,0l0-8.1H37.4z"/>
</g>
</svg>
