<?xml version="1.0" encoding="utf-8"?>
<!-- Generator: Adobe Illustrator 27.2.0, SVG Export Plug-In . SVG Version: 6.00 Build 0)  -->
<svg version="1.1" id="Layer_1" xmlns="http://www.w3.org/2000/svg" xmlns:xlink="http://www.w3.org/1999/xlink" x="0px" y="0px"
	 viewBox="0 0 60 60" style="enable-background:new 0 0 60 60;" xml:space="preserve">
<style type="text/css">
	.st0{fill-rule:evenodd;clip-rule:evenodd;}
</style>
<g id="IMEI_2">
	<g id="_origin-copy" transform="translate(17.000000, 7.000000)">
		<path id="Combined-Shape" d="M24.5,0c1.3,0,2.4,1,2.5,2.3l0,0.2v42c0,1.3-1.1,2.4-2.4,2.5l-0.2,0H2.5c-1.3,0-2.4-1-2.5-2.3l0-0.2
			v-42C0,1.2,1.1,0.1,2.4,0l0.2,0H24.5z M24.6,44l-0.2,0H2.5c-0.4,0-0.7-0.1-1-0.2l0,0.7c0,0.5,0.4,0.9,0.9,1l0.1,0h21.9
			c0.5,0,1-0.4,1-0.9l0-0.1l0-0.7C25.2,43.9,24.9,44,24.6,44z M1.5,41.6c0,0.5,0.4,0.9,0.9,0.9l0.1,0h21.9c0.5,0,1-0.4,1-0.8l0-0.1
			V5.4c0-0.5-0.4-0.9-0.9-0.9l-0.1,0H2.5c-0.5,0-1,0.4-1,0.8l0,0.1V41.6z M24.5,1.5H2.5c-0.5,0-1,0.4-1,0.9l0,0.1l0,0.7
			C1.8,3.1,2.1,3,2.4,3l0.2,0h21.9c0.4,0,0.7,0.1,1,0.2l0-0.7c0-0.5-0.4-0.9-0.9-1L24.5,1.5z"/>
		<path id="Combined-Shape_00000140005669137646011240000018288156777114583437_" class="st0" d="M15.4,20.9c0.1,0,0.1,0,0.1,0.1
			c-1.4,4.6-2,7.3-1.7,7.7c0.3,0.4,1-0.2,1.8-1.6c0,0,0.1,0,0.1,0.1C14.8,29.2,14.3,30,13,30c-0.4,0-1-0.2-1-1.6s1.6-5.6,1.5-6.1
			c-0.1-0.3-0.5-0.5-1.3-0.6v-0.2L15.4,20.9z M14.8,16c0.7,0,1.2,0.6,1.2,1.3c0,0.7-0.6,1.3-1.2,1.3s-1.2-0.6-1.2-1.3
			C13.5,16.6,14.1,16,14.8,16z"/>
	</g>
</g>
</svg>
