<?xml version="1.0" encoding="utf-8"?>
<!-- Generator: Adobe Illustrator 27.2.0, SVG Export Plug-In . SVG Version: 6.00 Build 0)  -->
<svg version="1.1" id="Layer_1" xmlns="http://www.w3.org/2000/svg" xmlns:xlink="http://www.w3.org/1999/xlink" x="0px" y="0px"
	 viewBox="0 0 60 60" style="enable-background:new 0 0 60 60;" xml:space="preserve">
<style type="text/css">
	.st0{fill-rule:evenodd;clip-rule:evenodd;}
</style>
<g id="Nav">
	<g id="Navi_04_Contact">
		<path id="Combined-Shape" class="st0" d="M9.7,15.5l6.6,9.6c0.4,0.6,0.3,1.5-0.3,2L12.4,30c0.3,0.3,0.6,0.7,0.8,1l0,0l0.6,0.7
			l0.8,1c1.4,1.6,2.9,3.2,4.5,4.8l-0.1-0.1l0.8,0.8c1.3,1.2,2.5,2.4,3.8,3.6l1,0.8l0.7,0.6l0,0l0.5,0.4l0,0l0.5,0.4l2.9-3.6
			c0.5-0.6,1.3-0.7,1.9-0.4l0.1,0.1l9.6,6.6c0.6,0.4,0.8,1.2,0.5,1.9l-0.1,0.1l-2.4,4.1c0,0,0,0.1-0.1,0.1c-0.4,0.6-1.3,0.8-2,0.5
			l-0.1-0.1l-0.2-0.2L36,52.8l-0.6-0.4c-5.6-3.2-11.7-8-17.4-13.7l-0.2-0.2C12,32.8,7.2,26.7,4,21.1l-0.4-0.6l-0.4-0.7l-0.2-0.2
			c-0.5-0.7-0.3-1.6,0.4-2.1c0,0,0.1,0,0.1-0.1L7.7,15C8.4,14.6,9.2,14.8,9.7,15.5z M54.3,7c1.4,0,2.6,1.1,2.7,2.5l0,0.2v14.7
			c0,1.4-1.1,2.6-2.5,2.7l-0.2,0H41.8l-4,4c-0.5,0.5-1.3,0.2-1.4-0.4l0-0.1l0-0.1l0-3.4H31c-1.4,0-2.5-1-2.7-2.3l0-0.2l0-0.2V9.7
			c0-1.4,1.1-2.6,2.5-2.7L31,7H54.3z M54.3,8.7H31c-0.5,0-0.9,0.4-1,0.9l0,0.1v14.7c0,0.5,0.4,0.9,0.9,1l0.1,0h6.1
			c0.4,0,0.8,0.3,0.9,0.7l0,0.1l0,2.2l2.8-2.8c0.1-0.1,0.2-0.2,0.4-0.2l0.1,0l0.1,0h12.9c0.5,0,0.9-0.4,1-0.9l0-0.1V9.7
			C55.3,9.2,54.8,8.7,54.3,8.7z M37.5,15.8c0.5,0,0.9,0.4,0.9,0.9s-0.4,0.9-0.9,0.9c-0.5,0-0.9-0.4-0.9-0.9S37,15.8,37.5,15.8z
			 M42.4,15.8c0.5,0,0.9,0.4,0.9,0.9s-0.4,0.9-0.9,0.9c-0.5,0-0.9-0.4-0.9-0.9S41.9,15.8,42.4,15.8z M47.3,15.8
			c0.5,0,0.9,0.4,0.9,0.9s-0.4,0.9-0.9,0.9c-0.5,0-0.9-0.4-0.9-0.9S46.8,15.8,47.3,15.8z"/>
	</g>
</g>
</svg>
