<?xml version="1.0" encoding="UTF-8"?>
<svg width="60px" height="60px" viewBox="0 0 60 60" version="1.1" xmlns="http://www.w3.org/2000/svg" xmlns:xlink="http://www.w3.org/1999/xlink">
    <!-- Generator: Sketch 62 (91390) - https://sketch.com -->
    <title>DirectPurchase</title>
    <desc>Created with Sketch.</desc>
    <g id="DirectPurchase" stroke="none" stroke-width="1" fill="none" fill-rule="evenodd">
        <path d="M23.1265574,44 C25.4055921,44 27.2531148,45.8475227 27.2531148,48.1265574 C27.2531148,50.4055921 25.4055921,52.2531148 23.1265574,52.2531148 C20.8475227,52.2531148 19,50.4055921 19,48.1265574 C19,45.8475227 20.8475227,44 23.1265574,44 Z M46.1265574,44 C48.4055921,44 50.2531148,45.8475227 50.2531148,48.1265574 C50.2531148,50.4055921 48.4055921,52.2531148 46.1265574,52.2531148 C43.8475227,52.2531148 42,50.4055921 42,48.1265574 C42,45.8475227 43.8475227,44 46.1265574,44 Z M23.1265574,45.7685246 C21.8242519,45.7685246 20.7685246,46.8242519 20.7685246,48.1265574 C20.7685246,49.428863 21.8242519,50.4845902 23.1265574,50.4845902 C24.428863,50.4845902 25.4845902,49.428863 25.4845902,48.1265574 C25.4845902,46.8242519 24.428863,45.7685246 23.1265574,45.7685246 Z M46.1265574,45.7685246 C44.8242519,45.7685246 43.7685246,46.8242519 43.7685246,48.1265574 C43.7685246,49.428863 44.8242519,50.4845902 46.1265574,50.4845902 C47.428863,50.4845902 48.4845902,49.428863 48.4845902,48.1265574 C48.4845902,46.8242519 47.428863,45.7685246 46.1265574,45.7685246 Z M3.89379581,13 L11.6615553,13.084208 C12.0332969,13.0882379 12.3579525,13.3234151 12.4825293,13.6647967 L12.5164347,13.7823527 L18.1845003,40.1173253 L51.2830278,40.1173253 L55.2502098,21.2498071 C55.3423048,20.8117149 55.7439642,20.518095 56.178387,20.549586 L56.2974703,20.5663708 C56.7355624,20.6584658 57.0291824,21.0601252 56.9976913,21.494548 L56.9809065,21.6136313 L52.8669613,41.1834997 C52.7895217,41.5518769 52.4893271,41.8260788 52.1251553,41.8772355 L52.0016129,41.88585 L17.4705322,41.88585 C17.0955371,41.88585 16.7663322,41.6502502 16.6403272,41.3061846 L16.6060674,41.1876532 L10.9359075,14.8439297 L3.87462489,14.7684207 C3.42698366,14.763568 3.06064181,14.4269129 3.00677111,13.9946945 L3,13.8746249 C3.00485274,13.4269837 3.34150775,13.0606418 3.7737262,13.0067711 L3.89379581,13 Z M37.3796722,12 L37.379,20.074 L43.8642625,20.0740984 L34.4321312,29.5062297 L25,20.0740984 L31.484,20.074 L31.4845902,12 L37.3796722,12 Z" id="Combined-Shape" fill="#000000"></path>
    </g>
</svg>