<?xml version="1.0" encoding="UTF-8"?>
<svg width="60px" height="60px" viewBox="0 0 60 60" version="1.1" xmlns="http://www.w3.org/2000/svg" xmlns:xlink="http://www.w3.org/1999/xlink">
    <!-- Generator: Sketch 62 (91390) - https://sketch.com -->
    <title>Contact</title>
    <desc>Created with Sketch.</desc>
    <g id="Nav" stroke="none" stroke-width="1" fill="none" fill-rule="evenodd">
        <g id="Navi_04_Contact" fill="#000000">
            <path d="M9.68740716,15.4532503 L16.3205956,25.0555228 C16.7673559,25.7022576 16.6390852,26.5841904 16.0266059,27.0768666 L12.4498564,29.9538169 C12.7284379,30.2941522 13.0112294,30.6345835 13.2981033,30.9749286 L13.3135956,30.9627028 L13.9101378,31.660822 L14.7507104,32.6312253 C16.1683293,34.2458885 17.6684111,35.846098 19.238048,37.4157349 L19.1393049,37.3145688 L19.9846425,38.1503397 C21.2496194,39.3833785 22.5320996,40.5702499 23.8238301,41.7043451 L24.7942335,42.5449177 L25.4923526,43.1414599 L25.4808923,43.1575974 L25.9910691,43.5845032 L25.9910691,43.5845032 L26.5012386,44.0051991 L29.3781889,40.4284496 C29.8400728,39.8542502 30.6440768,39.7056248 31.2756661,40.0574088 L31.3995327,40.1344599 L41.0018052,46.7676483 C41.6058603,47.1849257 41.8136808,47.9720139 41.5130189,48.6266315 L41.4460735,48.7556399 L39.0645851,52.8525358 C39.0476502,52.8816692 39.0297383,52.9102236 39.01088,52.9381505 C38.5745391,53.5843182 37.7229458,53.7824205 37.0518844,53.4169743 L36.9283214,53.3418209 L36.6838059,53.1761557 L36.0309762,52.8146025 L35.3880942,52.4520105 C29.7960589,49.2482969 23.6851754,44.4601423 17.939408,38.7143749 L17.7406806,38.5156474 C11.9949132,32.76988 7.20675859,26.6589965 4.00304501,21.0669612 L3.64045296,20.4240793 L3.27889978,19.7712496 L3.11323459,19.526734 C2.64962243,18.8401809 2.83035183,17.9077876 3.51690501,17.4441755 C3.54483186,17.4253172 3.57338627,17.4074053 3.60251962,17.3904703 L7.69941554,15.008982 C8.37645289,14.6154263 9.24231126,14.8089248 9.68740716,15.4532503 Z M54.3063871,7 C55.7368114,7 56.9068163,8.11498852 56.9947006,9.52326461 L57,9.69361293 L57,24.3860471 C57,25.8164715 55.8850115,26.9864763 54.4767354,27.0743607 L54.3063871,27.07966 L41.8040055,27.07966 L37.7712459,31.1139267 C37.2881624,31.5970101 36.498261,31.3417363 36.3373187,30.7357166 L36.3164791,30.6315322 L36.3081552,30.5078947 L36.3078107,27.07966 L31.0433663,27.07966 C29.6773235,27.07966 28.5487854,26.0627811 28.3734209,24.7446921 L28.3565166,24.5784139 L28.3497534,24.3860471 L28.3497534,9.69361293 C28.3497534,8.26318856 29.4647419,7.09318372 30.873018,7.00529936 L31.0433663,7 L54.3063871,7 Z M54.3063871,8.71411732 L31.0433663,8.71411732 C30.5410458,8.71411732 30.1270411,9.09224199 30.0704605,9.57938305 L30.0638707,9.69361293 L30.0638707,24.3860471 C30.0638707,24.8883676 30.4419954,25.3023723 30.9291364,25.3589529 L31.0433663,25.3655427 L37.1652139,25.3655427 C37.6021435,25.3655427 37.9627086,25.6924979 38.0155948,26.1150938 L38.0222725,26.2226014 L38.021928,28.4387102 L40.8444752,25.6165694 C40.9473422,25.5137024 41.0736655,25.4396846 41.2108737,25.3997234 L41.3156244,25.3762194 L41.4505072,25.3655427 L54.3063871,25.3655427 C54.8087075,25.3655427 55.2227122,24.987418 55.2792929,24.500277 L55.2858827,24.3860471 L55.2858827,9.69361293 C55.2858827,9.15265244 54.8473476,8.71411732 54.3063871,8.71411732 Z M37.4713063,15.8154605 C37.9784567,15.8154605 38.3895834,16.2265872 38.3895834,16.7337376 C38.3895834,17.2408881 37.9784567,17.6520148 37.4713063,17.6520148 C36.9641558,17.6520148 36.5530291,17.2408881 36.5530291,16.7337376 C36.5530291,16.2265872 36.9641558,15.8154605 37.4713063,15.8154605 Z M42.3687843,15.8154605 C42.8759348,15.8154605 43.2870614,16.2265872 43.2870614,16.7337376 C43.2870614,17.2408881 42.8759348,17.6520148 42.3687843,17.6520148 C41.8616338,17.6520148 41.4505072,17.2408881 41.4505072,16.7337376 C41.4505072,16.2265872 41.8616338,15.8154605 42.3687843,15.8154605 Z M47.2662624,15.8154605 C47.7734128,15.8154605 48.1845395,16.2265872 48.1845395,16.7337376 C48.1845395,17.2408881 47.7734128,17.6520148 47.2662624,17.6520148 C46.7591119,17.6520148 46.3479852,17.2408881 46.3479852,16.7337376 C46.3479852,16.2265872 46.7591119,15.8154605 47.2662624,15.8154605 Z" id="Combined-Shape"></path>
        </g>
    </g>
</svg>