<?xml version="1.0" encoding="UTF-8"?>
<svg width="60px" height="60px" viewBox="0 0 60 60" version="1.1" xmlns="http://www.w3.org/2000/svg" xmlns:xlink="http://www.w3.org/1999/xlink">
    <!-- Generator: Sketch 62 (91390) - https://sketch.com -->
    <title>Coverage</title>
    <desc>Created with Sketch.</desc>
    <g id="Nav" stroke="none" stroke-width="1" fill="none" fill-rule="evenodd">
        <g id="Navi_02_Coverage" fill="#000000" fill-rule="nonzero">
            <path d="M48.25,7 C49.2164983,7 50,7.78350169 50,8.75 L50,8.75 L50,51.25 C50,52.2164983 49.2164983,53 48.25,53 L48.25,53 L11.75,53 C10.7835017,53 10,52.2164983 10,51.25 L10,51.25 L10,8.75 C10,7.78350169 10.7835017,7 11.75,7 L11.75,7 Z M48.25,8.5 L11.75,8.5 C11.6119288,8.5 11.5,8.61192881 11.5,8.75 L11.5,8.75 L11.5,51.25 C11.5,51.3880712 11.6119288,51.5 11.75,51.5 L11.75,51.5 L48.25,51.5 C48.3880712,51.5 48.5,51.3880712 48.5,51.25 L48.5,51.25 L48.5,8.75 C48.5,8.61192881 48.3880712,8.5 48.25,8.5 L48.25,8.5 Z M22.7523126,40.7792151 L23.105866,41.1327685 C23.3011281,41.3280306 23.3011281,41.6446131 23.105866,41.8398753 L19.6819805,45.2637607 C19.5084142,45.4373271 19.2389898,45.4566122 19.0441216,45.3216162 L18.9748737,45.2637607 L16.8535534,43.1424404 C16.6582912,42.9471782 16.6582912,42.6305957 16.8535534,42.4353336 L17.1791947,42.1096923 C17.3744568,41.9144302 17.6910393,41.9144302 17.8863015,42.1096923 L19.3009244,43.5234965 L22.0452058,40.7792151 C22.240468,40.5839529 22.5570504,40.5839529 22.7523126,40.7792151 Z M43,42.6578947 C43.2761424,42.6578947 43.5,42.8817524 43.5,43.1578947 L43.5,43.6184211 C43.5,43.8945634 43.2761424,44.1184211 43,44.1184211 L27,44.1184211 C26.7238576,44.1184211 26.5,43.8945634 26.5,43.6184211 L26.5,43.1578947 C26.5,42.8817524 26.7238576,42.6578947 27,42.6578947 L43,42.6578947 Z M22.7523126,28.4897414 L23.105866,28.8432948 C23.3011281,29.0385569 23.3011281,29.3551394 23.105866,29.5504016 L19.6819805,32.974287 C19.5084142,33.1478534 19.2389898,33.1671385 19.0441216,33.0321425 L18.9748737,32.974287 L16.8535534,30.8529667 C16.6582912,30.6577045 16.6582912,30.3411221 16.8535534,30.1458599 L17.1791947,29.8202186 C17.3744568,29.6249565 17.6910393,29.6249565 17.8863015,29.8202186 L19.3009244,31.2340228 L22.0452058,28.4897414 C22.240468,28.2944793 22.5570504,28.2944793 22.7523126,28.4897414 Z M43,30.3684211 C43.2761424,30.3684211 43.5,30.5922787 43.5,30.8684211 L43.5,31.3289474 C43.5,31.6050897 43.2761424,31.8289474 43,31.8289474 L27,31.8289474 C26.7238576,31.8289474 26.5,31.6050897 26.5,31.3289474 L26.5,30.8684211 C26.5,30.5922787 26.7238576,30.3684211 27,30.3684211 L43,30.3684211 Z M22.7523126,16.2002677 L23.105866,16.5538211 C23.3011281,16.7490832 23.3011281,17.0656657 23.105866,17.2609279 L19.6819805,20.6848134 C19.5084142,20.8583797 19.2389898,20.8776649 19.0441216,20.7426688 L18.9748737,20.6848134 L16.8535534,18.563493 C16.6582912,18.3682309 16.6582912,18.0516484 16.8535534,17.8563862 L17.1791947,17.5307449 C17.3744568,17.3354828 17.6910393,17.3354828 17.8863015,17.5307449 L19.3009244,18.9445491 L22.0452058,16.2002677 C22.240468,16.0050056 22.5570504,16.0050056 22.7523126,16.2002677 Z M43,18.0789474 C43.2761424,18.0789474 43.5,18.302805 43.5,18.5789474 L43.5,19.0394737 C43.5,19.3156161 43.2761424,19.5394737 43,19.5394737 L27,19.5394737 C26.7238576,19.5394737 26.5,19.3156161 26.5,19.0394737 L26.5,18.5789474 C26.5,18.302805 26.7238576,18.0789474 27,18.0789474 L43,18.0789474 Z" id="Combined-Shape"></path>
        </g>
    </g>
</svg>