<svg xmlns="http://www.w3.org/2000/svg" xmlns:xlink="http://www.w3.org/1999/xlink" width="18" height="18" viewBox="0 0 18 18">
  <defs>
    <clipPath id="clip-path">
      <rect id="사각형_2264" data-name="사각형 2264" width="15.004" height="14.533" fill="none"/>
    </clipPath>
  </defs>
  <g id="icon_mypd" transform="translate(-4353 -1170)">
    <g id="그룹_4848" data-name="그룹 4848" transform="translate(4355 1172)">
      <g id="그룹_4847" data-name="그룹 4847" transform="translate(0 0)" clip-path="url(#clip-path)">
        <path id="패스_594" data-name="패스 594" d="M7.278,10.387l-.189.139L7.106,13.6l-4.377.017v-3.1l-.189-.139a3.854,3.854,0,0,1,0-6.248L2.729,4,2.712.928,7.089.911V2.362c.083-.093.167-.187.258-.274a4.864,4.864,0,0,1,.685-.559V.911A.919.919,0,0,0,7.106,0H2.712a.92.92,0,0,0-.926.911V3.542a4.77,4.77,0,0,0,0,7.442v2.638a.92.92,0,0,0,.926.911H7.106a.919.919,0,0,0,.926-.911V10.984a4.874,4.874,0,0,0,.937-1.018,4.9,4.9,0,0,1-.842-.434,3.982,3.982,0,0,1-.849.855" transform="translate(0 0)" fill="#1a1311"/>
        <path id="패스_595" data-name="패스 595" d="M26.238,5.027A4.023,4.023,0,0,0,23.4,6.18a3.8,3.8,0,0,0-1.172,2.791,3.97,3.97,0,0,0,3.985,3.945,4.015,4.015,0,0,0,4.032-3.968,3.971,3.971,0,0,0-4.009-3.922m0,6.9a2.953,2.953,0,1,1-.024-5.906h0a3,3,0,0,1,2.133.876,2.82,2.82,0,0,1,.891,2.076,2.983,2.983,0,0,1-3,2.953" transform="translate(-15.243 -3.472)" fill="#1a1311"/>
        <path id="패스_596" data-name="패스 596" d="M31.792,12.418h-1.1V11.371a.563.563,0,0,0-1.125,0v1.047h-1.1a.554.554,0,1,0,0,1.107h1.1v1.047a.563.563,0,0,0,1.125,0V13.525h1.1a.554.554,0,1,0,0-1.107" transform="translate(-19.133 -7.472)" fill="#1a1311"/>
        <path id="패스_597" data-name="패스 597" d="M4.977,16.6a3.9,3.9,0,1,1,0-7.8,4,4,0,0,1,1.384.25,4.643,4.643,0,0,1,.457-.822,4.947,4.947,0,0,0-1.841-.356,4.831,4.831,0,1,0,0,9.66A4.93,4.93,0,0,0,9.041,15.4a4.9,4.9,0,0,1-.845-.435A3.979,3.979,0,0,1,4.977,16.6" transform="translate(-0.047 -5.434)" fill="#1a1311"/>
      </g>
    </g>
    <rect id="사각형_2261" data-name="사각형 2261" width="18" height="18" transform="translate(4353 1170)" fill="none"/>
  </g>
</svg>
