<svg xmlns="http://www.w3.org/2000/svg" width="24" height="24" viewBox="0 0 24 24">
  <g id="icon-home" transform="translate(-1223.802 -58.802)">
    <rect id="Container" width="24" height="24" transform="translate(1223.802 58.802)" fill="none"/>
    <path id="합치기_25" data-name="합치기 25" d="M312.913,64.608a1.109,1.109,0,0,1-1.109-1.049l0-.061V50.712a1.417,1.417,0,0,1,.494-1.045l.056-.043,8.948-6.593a1.221,1.221,0,0,1,1.365-.039l.056.039,8.948,6.593a1.411,1.411,0,0,1,.547,1.018l0,.07V63.5a1.11,1.11,0,0,1-1.05,1.109l-.06,0Zm13.036-11.442v9.712h4.54V50.9l-8.479-6.248L313.531,50.9V62.879h4.541V53.167Zm-6.393,9.712h4.909V54.65h-4.909ZM322.01,44.345Z" transform="translate(913.915 17.177)"/>
  </g>
</svg>
