<svg id="User" xmlns="http://www.w3.org/2000/svg" width="20" height="20" viewBox="0 0 20 20">
  <rect id="Container" width="20" height="20" fill="none"/>
  <path id="user-2" data-name="user" d="M22.472,11.708a6.464,6.464,0,0,1,6.472,6.28v1.607a1.012,1.012,0,0,1-1.011,1.011H17.011A1.012,1.012,0,0,1,16,19.595V17.988A6.464,6.464,0,0,1,22.472,11.708Zm0,1.618a4.886,4.886,0,0,0-4.854,4.662v1h9.708v-1A4.886,4.886,0,0,0,22.472,13.325ZM22.472,2a4.449,4.449,0,1,1-4.449,4.449A4.449,4.449,0,0,1,22.472,2Zm0,1.618A2.831,2.831,0,1,0,25.3,6.449,2.831,2.831,0,0,0,22.472,3.618Z" transform="translate(-12.472 -1.303)"/>
</svg>
