<?xml version="1.0" encoding="UTF-8"?>
<svg width="60px" height="60px" viewBox="0 0 60 60" version="1.1" xmlns="http://www.w3.org/2000/svg" xmlns:xlink="http://www.w3.org/1999/xlink">
    <!-- Generator: Sketch 62 (91390) - https://sketch.com -->
    <title>IMEI_2</title>
    <desc>Created with Sketch.</desc>
    <g id="IMEI_2" stroke="none" stroke-width="1" fill="none" fill-rule="evenodd">
        <g id="_origin-copy" transform="translate(17.000000, 7.000000)" fill="#000000">
            <path d="M24.4605263,0 C25.8018933,0 26.9082146,1.01964185 26.9945741,2.31945142 L27,2.48333333 L27,44.5166667 C27,45.8385397 25.9473333,46.9110565 24.6269162,46.9947429 L24.4605263,47 L2.53947368,47 C1.19810675,47 0.0917853818,45.9803582 0.00542585975,44.6805486 L0,44.5166667 L0,2.48333333 C0,1.16146026 1.05266669,0.0889434874 2.37308379,0.00525714258 L2.53947368,0 L24.4605263,0 Z M24.6265619,43.9948322 L24.4605263,44 L2.53947368,44 C2.16990535,44 1.81781089,43.9235734 1.49989875,43.7858761 L1.5,44.5166667 C1.5,45.0184603 1.90082685,45.4401651 2.42529597,45.4941622 L2.53947368,45.5 L24.4605263,45.5 C25.0012444,45.5 25.4381191,45.1117481 25.4939659,44.6228632 L25.5,44.5166667 L25.5010936,43.7854461 C25.2308791,43.9026186 24.9359463,43.9755183 24.6265619,43.9948322 Z M1.5,41.5510753 C1.5,42.029398 1.89398463,42.4376126 2.4166861,42.4934885 L2.53947368,42.5 L24.4605263,42.5 C25.0014607,42.5 25.4340835,42.1259513 25.4931269,41.6600845 L25.5,41.5510753 L25.5,5.44892473 C25.5,4.97060198 25.1060154,4.5623874 24.5833139,4.50651146 L24.4605263,4.5 L2.53947368,4.5 C1.99853927,4.5 1.56591646,4.87404866 1.50687307,5.33991554 L1.5,5.44892473 L1.5,41.5510753 Z M24.4605263,1.5 L2.53947368,1.5 C1.99875558,1.5 1.56188086,1.88825189 1.50603409,2.3771368 L1.5,2.48333333 L1.49989875,3.21412388 C1.76984288,3.09720298 2.06443236,3.02445807 2.37343812,3.00516775 L2.53947368,3 L24.4605263,3 C24.8304792,3 25.1829219,3.07658573 25.5010936,3.21455393 L25.5,2.48333333 C25.5,1.98153972 25.0991732,1.55983493 24.574704,1.50583781 L24.4605263,1.5 Z" id="Combined-Shape" fill-rule="nonzero"></path>
            <path d="M15.4322072,20.914022 C15.50625,20.9370402 15.5397206,20.960246 15.5326188,20.9836394 C14.1231206,25.6265792 13.4988704,28.2679262 13.8109955,28.6749262 C14.1231206,29.0819262 14.8544102,28.5238298 15.6056234,27.06714 C15.6458502,27.1021454 15.683888,27.1108071 15.7051108,27.1282195 C14.8294308,29.1797906 14.3429608,30 13.0467069,30 C12.6584066,30 12,29.7633579 12,28.3536766 C12,26.9439953 13.6045332,22.7845497 13.4861909,22.2992468 C13.4072961,21.9757115 12.9594813,21.7678878 12.1427467,21.6757756 L12.1427467,21.5189793 L15.4322072,20.914022 Z M14.7649631,16 C15.4470551,16 16,16.5868156 16,17.3106893 C16,18.0345631 15.4470551,18.6213787 14.7649631,18.6213787 C14.082871,18.6213787 13.5299261,18.0345631 13.5299261,17.3106893 C13.5299261,16.5868156 14.082871,16 14.7649631,16 Z" id="Combined-Shape"></path>
        </g>
    </g>
</svg>