<?xml version="1.0" encoding="UTF-8"?>
<svg width="60px" height="60px" viewBox="0 0 60 60" version="1.1" xmlns="http://www.w3.org/2000/svg" xmlns:xlink="http://www.w3.org/1999/xlink">
    <!-- Generator: Sketch 62 (91390) - https://sketch.com -->
    <title>Wheretobuy</title>
    <desc>Created with Sketch.</desc>
    <g id="Wheretobuy" stroke="none" stroke-width="1" fill="none" fill-rule="evenodd">
        <path d="M10.25,52.7848633 C9.3318266,52.7848633 8.57880766,52.077753 8.5058012,51.1783905 L8.5,51.0348633 L8.5,29 L8.66772081,28.9993827 C7.68502879,28.0087574 7.060415,26.6623909 7.00415208,25.1705557 L7,24.95 L7,22.45 C7,22.4137211 7.00257586,22.3780438 7.00755468,22.3431411 C6.99565311,22.2632377 6.9986003,22.1792669 7.01660175,22.0943916 L7.01660175,22.0943916 L9.66776454,9.59439163 C9.74126219,9.2478567 10.047201,9 10.4014443,9 L10.4014443,9 L48.5991188,9 C48.9533621,9 49.2593009,9.2478567 49.3327985,9.59439163 L49.3327985,9.59439163 L51.9839613,22.0943916 C52.0021859,22.1803191 52.0049807,22.2653195 51.9944313,22.3468187 C51.9929682,22.3468714 51.9930612,22.3475503 51.9931534,22.3482294 L52,22.45 L52,24.95 C52,26.529701 51.3629732,27.9606164 50.331792,28.9998737 L50.5,29 L50.5,51.0348633 C50.5,51.9530367 49.7928897,52.7060556 48.8935272,52.7790621 L48.75,52.7848633 L10.25,52.7848633 Z M40.4999905,27.2986814 C39.6304053,29.2399439 37.7151324,30.6111962 35.4705557,30.6958479 L35.25,30.7 L34.75,30.7 C32.4110195,30.7 30.3982242,29.303435 29.4999905,27.2986814 C28.6304053,29.2399439 26.7151324,30.6111962 24.4705557,30.6958479 L24.25,30.7 L23.75,30.7 C21.4110195,30.7 19.3982242,29.303435 18.4999905,27.2986814 C17.6304053,29.2399439 15.7151324,30.6111962 13.4705557,30.6958479 L13.25,30.7 L12.75,30.7 C11.7538301,30.7 10.8168269,30.4466769 9.9998957,30.0009358 L10,51.0348633 C10,51.15321 10.0822334,51.2523501 10.1926773,51.2782606 L10.25,51.2848633 L22.5,51.284 L22.5,40 C22.5,38.8954305 23.3954305,38 24.5,38 L34.5,38 C35.6045695,38 36.5,38.8954305 36.5,40 L36.5,51.284 L48.75,51.2848633 C48.8683467,51.2848633 48.9674868,51.2026299 48.9933973,51.092186 L49,51.0348633 L49.0007031,30.0006091 C48.2441906,30.4135007 47.3846825,30.6613726 46.4705557,30.6958479 L46.25,30.7 L45.75,30.7 C43.4110195,30.7 41.3982242,29.303435 40.4999905,27.2986814 Z M34.5,39.5 L24.5,39.5 C24.2545401,39.5 24.0503916,39.6768752 24.0080557,39.9101244 L24,40 L24,51.2848633 L35,51.2848633 L35,40 C35,39.7545401 34.8231248,39.5503916 34.5898756,39.5080557 L34.5,39.5 Z M17.5,23 L8.5,23 L8.5,24.95 C8.5,27.2281746 10.292507,29.0876867 12.5440837,29.1950991 L12.75,29.2 L13.25,29.2 C15.5281746,29.2 17.3876867,27.407493 17.4950991,25.1559163 L17.5,24.95 L17.5,23 Z M28.5,23 L19.5,23 L19.5,24.95 C19.5,27.2281746 21.292507,29.0876867 23.5440837,29.1950991 L23.75,29.2 L24.25,29.2 C26.5281746,29.2 28.3876867,27.407493 28.4950991,25.1559163 L28.5,24.95 L28.5,23 Z M39.5,23 L30.5,23 L30.5,24.95 C30.5,27.2281746 32.292507,29.0876867 34.5440837,29.1950991 L34.75,29.2 L35.25,29.2 C37.5281746,29.2 39.3876867,27.407493 39.4950991,25.1559163 L39.5,24.95 L39.5,23 Z M50.499,23 L41.499,23 L41.5,24.95 C41.5,27.2281746 43.292507,29.0876867 45.5440837,29.1950991 L45.75,29.2 L46.25,29.2 C48.5281746,29.2 50.3876867,27.407493 50.4950991,25.1559163 L50.5,24.95 L50.499,23 Z M47.9912815,10.5 L11.0082815,10.5 L8.67528154,21.5 L50.3242815,21.5 L47.9912815,10.5 Z" id="Combined-Shape" fill="#000000" fill-rule="nonzero"></path>
    </g>
</svg>